<?xml version="1.0" standalone="no"?>
<!DOCTYPE svg PUBLIC "-//W3C//DTD SVG 20010904//EN"
 "http://www.w3.org/TR/2001/REC-SVG-20010904/DTD/svg10.dtd">
<svg version="1.0" xmlns="http://www.w3.org/2000/svg"
 width="1200.000000pt" height="1200.000000pt" viewBox="0 0 1200.000000 1200.000000"
 preserveAspectRatio="xMidYMid meet">

<g transform="translate(0.000000,1200.000000) scale(0.100000,-0.100000)"
fill="#000000" stroke="none">
<path d="M5680 11079 c-965 -63 -1897 -408 -2685 -994 -373 -277 -752 -656
-1040 -1041 -856 -1142 -1210 -2618 -970 -4041 398 -2356 2309 -4126 4646
-4304 207 -15 736 -7 924 16 1135 134 2151 617 2964 1410 913 890 1463 2079
1562 3374 17 234 7 769 -20 994 -143 1187 -656 2264 -1474 3090 -1035 1046
-2458 1590 -3907 1496z m673 -778 c4 -4 7 -43 5 -87 l-3 -79 -142 1 -143 1 0
-33 0 -32 63 -6 c34 -3 80 -7 102 -9 l40 -2 3 -68 c4 -96 0 -100 -117 -95
l-96 3 -3 -37 c-3 -38 -3 -38 35 -39 21 -1 85 -4 143 -8 l105 -6 3 -76 c2 -56
-1 -79 -11 -88 -11 -8 -75 -9 -246 -5 -198 6 -233 10 -240 23 -8 17 5 625 14
649 5 13 39 14 243 8 130 -4 241 -11 245 -15z m-851 -48 c41 -20 59 -55 71
-137 9 -64 8 -77 -6 -99 -16 -25 -16 -26 13 -32 26 -6 90 -64 90 -83 0 -4 9
-61 20 -127 17 -103 18 -122 5 -131 -23 -17 -174 -37 -189 -25 -7 6 -18 49
-25 95 -7 47 -18 89 -24 94 -7 5 -42 5 -85 -1 -66 -10 -73 -13 -68 -31 2 -12
10 -57 16 -100 10 -69 10 -81 -3 -91 -22 -16 -177 -39 -188 -28 -11 11 -109
631 -102 648 5 13 44 22 263 55 119 19 166 17 212 -7z m1214 11 c28 -4 57 -16
69 -28 11 -12 50 -73 85 -136 72 -130 62 -132 98 20 l17 75 45 -2 c25 -2 68
-8 95 -15 40 -10 51 -18 53 -36 6 -39 -120 -623 -135 -629 -20 -8 -160 17
-179 32 -15 10 -15 17 -1 76 l14 64 -55 108 c-34 67 -58 103 -62 95 -4 -7 -20
-74 -35 -148 -15 -74 -33 -141 -40 -148 -11 -12 -25 -11 -91 3 -44 10 -85 23
-92 30 -11 10 -2 66 52 325 37 179 71 317 78 322 7 4 18 6 24 4 6 -3 33 -8 60
-12z m909 -249 c129 -33 269 -117 298 -178 28 -59 21 -98 -49 -265 -92 -219
-109 -248 -159 -272 -53 -26 -96 -25 -181 1 -199 61 -303 152 -292 253 8 61
153 398 186 429 48 45 107 55 197 32z m-3682 -247 c31 -41 57 -92 57 -111 0
-8 -47 -43 -105 -77 -87 -53 -105 -68 -105 -88 0 -38 127 -242 151 -242 22 0
102 48 97 58 -2 4 -20 37 -41 74 -21 37 -36 72 -33 77 10 16 144 91 163 91 13
0 42 -40 101 -138 45 -76 82 -143 82 -149 0 -13 -237 -158 -321 -198 -61 -28
-126 -32 -167 -11 -44 23 -75 64 -168 221 -81 136 -89 155 -92 210 -6 93 18
118 221 242 67 40 125 73 129 73 4 0 18 -15 31 -32z m4369 -99 c43 -29 78 -59
78 -67 0 -9 -36 -70 -79 -137 -62 -93 -84 -137 -101 -198 -20 -75 -21 -107 -2
-107 5 0 40 24 77 53 53 42 87 80 149 173 45 65 89 120 98 122 18 4 168 -93
168 -108 0 -5 -40 -69 -89 -143 l-90 -133 -138 -96 c-76 -52 -146 -98 -155
-101 -19 -7 -254 142 -264 167 -5 14 35 222 62 315 20 68 178 310 203 311 3 0
40 -23 83 -51z m-3359 -106 c30 -59 50 -134 38 -146 -6 -6 -120 -50 -253 -99
-193 -70 -245 -85 -255 -75 -6 6 -23 43 -38 81 -21 58 -23 72 -12 83 14 14
462 181 489 182 10 1 24 -11 31 -26z m-1454 -427 c116 -131 211 -242 211 -247
0 -12 -99 -105 -129 -121 -22 -12 -27 -9 -70 38 l-48 52 -104 16 c-57 9 -112
19 -122 21 -22 4 -27 11 101 -134 50 -58 92 -111 92 -117 0 -16 -125 -129
-142 -129 -16 0 -438 474 -438 491 0 15 84 96 109 106 10 3 80 -2 157 -12 76
-9 140 -16 142 -15 2 2 -26 36 -62 76 -36 41 -66 81 -66 91 0 22 120 130 141
126 10 -2 112 -110 228 -242z m5604 -88 c59 -57 107 -111 107 -121 0 -20 -66
-180 -113 -272 -33 -66 -229 -285 -256 -285 -19 0 -141 119 -141 138 0 7 22
37 50 66 l49 52 -57 57 -58 57 -54 -55 c-30 -30 -58 -55 -63 -55 -11 0 -116
100 -128 123 -9 15 6 35 87 120 53 56 111 112 128 124 39 28 305 153 326 153
8 0 64 -46 123 -102z m-6365 -291 c28 -22 52 -47 52 -56 0 -9 -14 -34 -31 -54
-18 -22 -28 -42 -23 -47 5 -5 60 -49 123 -99 l115 -89 29 36 c16 20 35 40 42
44 17 10 135 -77 135 -99 0 -20 -267 -353 -283 -353 -17 0 -127 89 -127 104 0
6 13 27 30 46 16 19 29 40 30 46 0 11 -206 180 -231 189 -8 3 -26 -12 -43 -35
-17 -22 -37 -40 -45 -40 -19 0 -131 87 -131 102 0 10 216 288 260 336 24 25
24 25 98 -31z m6745 -124 c99 -131 267 -370 267 -381 0 -14 -110 -102 -128
-102 -6 0 -33 27 -59 60 -26 34 -52 59 -59 56 -7 -3 -94 -64 -193 -135 -100
-72 -187 -131 -194 -131 -8 0 -40 36 -71 80 -47 65 -56 83 -46 95 6 8 87 68
178 134 92 66 176 126 186 134 18 14 18 16 -22 72 -23 32 -42 66 -42 76 0 18
103 99 126 99 7 0 33 -26 57 -57z m-7124 -455 c64 -33 130 -71 148 -83 45 -30
243 -269 243 -294 0 -25 -128 -261 -145 -268 -16 -5 -272 23 -334 38 -50 11
-300 145 -308 165 -5 13 69 155 92 174 10 9 42 -4 144 -60 109 -59 144 -73
213 -85 101 -18 95 -18 102 1 4 11 -14 37 -56 80 -48 50 -89 79 -186 132 -68
37 -127 73 -130 81 -7 19 77 181 94 181 4 0 59 -28 123 -62z m7523 -145 c20
-23 188 -371 188 -389 0 -16 -110 -74 -140 -74 -13 0 -27 14 -41 43 -12 23
-23 44 -26 47 -2 2 -66 -27 -143 -65 l-138 -69 24 -49 c30 -57 26 -66 -48
-103 -82 -42 -77 -46 -185 170 -61 123 -94 199 -90 210 8 19 123 77 141 70 7
-3 22 -25 34 -49 12 -25 26 -45 32 -45 14 0 270 129 270 135 0 3 -9 23 -20 45
-11 22 -20 46 -20 54 0 9 29 31 68 50 79 41 75 41 94 19z m-3361 -396 c21 -14
39 -37 47 -61 9 -30 12 -300 10 -1254 l-3 -1217 -873 -3 c-760 -2 -875 0 -895
13 -35 23 -129 53 -189 60 -70 9 -167 -9 -248 -46 l-65 -29 -365 2 -365 3 -3
1223 c-2 1347 -6 1272 60 1312 33 20 46 20 1444 20 l1411 0 34 -23z m-4346
-246 c202 -65 246 -89 266 -148 25 -77 -12 -260 -76 -369 -14 -24 -42 -56 -61
-71 -55 -41 -106 -36 -314 31 -185 60 -211 73 -249 127 -21 31 -23 42 -18 119
8 133 72 288 141 340 58 43 96 39 311 -29z m7935 -31 c71 -20 134 -115 170
-256 37 -142 21 -234 -46 -279 -43 -29 -378 -128 -436 -129 -33 -1 -55 5 -75
20 -85 63 -148 218 -148 366 0 139 18 154 271 227 233 68 216 65 264 51z
m-2370 -571 c57 -13 105 -50 130 -100 l20 -39 -458 0 c-447 0 -459 0 -480 -20
-22 -21 -22 -24 -22 -360 0 -327 1 -341 20 -360 20 -20 33 -20 615 -20 l595 0
19 -39 c23 -44 58 -81 154 -164 37 -32 67 -63 67 -68 0 -5 -41 -9 -90 -9 -89
0 -91 -1 -128 -34 -37 -34 -37 -35 -40 -123 -3 -75 0 -93 18 -121 29 -47 73
-62 180 -62 l91 0 -3 -82 -3 -83 -300 -3 -300 -2 -67 30 c-199 92 -432 37
-572 -133 -43 -52 -86 -144 -93 -198 l-6 -39 -198 0 -199 0 0 1020 0 1020 503
0 c308 0 519 -4 547 -11z m-5806 -159 c166 -17 312 -33 325 -36 23 -5 23 -6
17 -97 -4 -51 -13 -97 -19 -104 -9 -10 -43 -9 -156 3 -79 8 -153 14 -165 12
-18 -3 -16 -6 17 -26 56 -35 67 -50 67 -87 0 -54 -10 -66 -73 -95 l-60 -27 44
-6 c24 -4 98 -11 164 -18 76 -7 124 -16 131 -24 12 -16 -1 -174 -16 -189 -8
-8 -636 50 -654 61 -12 8 2 195 15 208 5 5 51 28 102 50 50 22 93 47 95 55 1
9 -22 30 -55 52 -32 20 -73 50 -92 66 l-34 28 11 92 c11 89 17 112 29 112 3 0
141 -14 307 -30z m8453 -72 c15 -19 22 -131 11 -154 -6 -10 -51 -60 -99 -110
-49 -50 -89 -95 -89 -99 0 -4 47 -4 104 0 67 5 106 4 110 -3 3 -6 9 -51 13
-101 6 -89 6 -90 -18 -95 -44 -10 -579 -57 -611 -54 -25 2 -33 9 -39 31 -11
41 -15 154 -6 163 4 4 37 11 74 16 l67 8 83 82 c45 45 81 84 79 86 -4 3 -228
-15 -278 -23 -15 -2 -33 2 -41 10 -18 17 -32 174 -17 189 6 6 137 22 293 37
339 32 352 32 364 17z m-2365 -278 c48 -135 90 -253 93 -262 6 -17 -24 -18
-529 -18 l-536 0 0 265 0 265 442 -2 442 -3 88 -245z m406 -837 l-3 -58 -73
-3 c-46 -2 -79 2 -88 9 -14 12 -20 90 -7 102 3 4 44 7 90 7 l84 0 -3 -57z
m-3694 -418 c125 -63 199 -185 200 -330 1 -72 -3 -88 -32 -147 -33 -68 -105
-143 -165 -174 -16 -9 -59 -22 -97 -30 -229 -47 -444 144 -427 381 6 88 33
151 93 215 87 93 155 121 285 117 71 -3 95 -8 143 -32z m2978 3 c73 -34 142
-103 176 -176 23 -49 27 -70 27 -152 0 -82 -4 -103 -27 -152 -94 -201 -349
-274 -528 -151 -105 73 -161 179 -162 306 -1 150 83 272 229 333 81 34 202 31
285 -8z m-3551 -90 c-16 -29 -37 -81 -47 -115 l-17 -63 -302 0 c-221 0 -304 3
-313 12 -15 15 -16 171 -2 199 10 18 25 19 361 19 l350 0 -30 -52z m2419 -63
l0 -115 -765 0 -765 0 -6 28 c-13 61 -28 100 -56 150 l-29 52 810 0 811 0 0
-115z m1940 96 c14 -28 13 -184 -2 -199 -9 -9 -78 -12 -250 -12 -225 0 -238 1
-238 18 0 31 -39 134 -65 174 l-25 38 285 0 c271 0 285 -1 295 -19z m-4433
-981 c48 -29 67 -65 67 -125 0 -60 -19 -96 -67 -125 -68 -42 -162 -14 -199 60
-64 127 79 264 199 190z m1241 0 c17 -11 32 -24 32 -29 0 -16 -25 -19 -45 -5
-10 8 -38 14 -61 14 -35 0 -47 -5 -68 -31 -36 -43 -36 -106 0 -149 24 -28 31
-31 78 -28 l51 3 3 53 c3 44 6 52 23 52 17 0 19 -7 19 -61 0 -60 0 -60 -37
-76 -44 -18 -111 -13 -148 11 -55 36 -74 136 -38 199 36 63 128 85 191 47z
m1531 2 c94 -50 94 -204 0 -254 -97 -52 -209 16 -209 127 0 81 62 145 140 145
19 0 51 -8 69 -18z m1470 0 c94 -50 94 -204 0 -254 -97 -52 -209 16 -209 127
0 81 62 145 140 145 19 0 51 -8 69 -18z m-4774 -82 c28 -49 52 -90 55 -90 3 0
29 41 58 90 74 126 82 122 82 -45 0 -113 -2 -135 -15 -135 -11 0 -15 12 -15
44 0 24 -3 64 -6 90 l-7 46 -44 -75 c-24 -41 -47 -75 -52 -75 -5 0 -30 35 -55
78 l-46 77 0 -92 c0 -86 -1 -93 -20 -93 -19 0 -20 7 -20 135 0 122 2 135 18
135 11 0 34 -31 67 -90z m757 -10 c22 -52 43 -99 47 -103 4 -4 28 39 53 95 35
79 50 104 67 106 20 3 19 -1 -15 -80 -20 -46 -46 -107 -57 -135 -17 -41 -27
-53 -43 -53 -18 0 -30 20 -73 119 -71 166 -67 153 -42 149 18 -2 31 -23 63
-98z m318 -35 c0 -128 -1 -135 -20 -135 -19 0 -20 7 -20 135 0 128 1 135 20
135 19 0 20 -7 20 -135z m247 38 l78 -98 3 98 c2 89 4 97 22 97 19 0 20 -7 20
-135 0 -171 -6 -173 -113 -39 l-77 97 0 -97 c0 -89 -1 -96 -20 -96 -19 0 -20
7 -20 135 0 112 3 135 15 135 8 0 49 -44 92 -97z m943 82 c52 -27 57 -119 10
-155 -20 -15 -20 -16 11 -58 31 -42 31 -42 7 -42 -15 0 -32 13 -51 40 -25 35
-33 40 -68 40 -39 0 -39 0 -39 -40 0 -33 -3 -40 -20 -40 -19 0 -20 7 -20 135
l0 135 70 0 c44 0 82 -6 100 -15z m360 0 c0 -12 -15 -15 -75 -15 l-75 0 0 -45
0 -45 65 0 c51 0 65 -3 65 -15 0 -12 -14 -15 -65 -15 l-65 0 0 -45 0 -45 75 0
c60 0 75 -3 75 -15 0 -12 -17 -15 -95 -15 l-95 0 0 135 0 135 95 0 c78 0 95
-3 95 -15z m230 -82 l75 -95 3 96 c2 88 4 96 22 96 19 0 20 -7 20 -135 0 -171
-6 -173 -110 -39 l-75 96 -3 -96 c-2 -88 -4 -96 -22 -96 -19 0 -20 7 -20 135
0 170 6 172 110 38z m680 -8 c24 -57 47 -102 51 -100 3 3 26 50 49 105 32 75
48 100 62 100 10 0 18 -3 18 -6 0 -3 -25 -63 -56 -135 -79 -180 -74 -182 -180
64 -33 77 -33 77 -11 77 20 0 30 -15 67 -105z m436 0 c79 -174 76 -165 53
-165 -12 0 -25 13 -36 35 -17 35 -17 35 -85 35 l-69 0 -15 -35 c-9 -23 -21
-35 -34 -35 -23 0 -27 -13 50 160 52 117 48 112 71 108 14 -2 33 -31 65 -103z
m344 90 c0 -11 -12 -15 -45 -15 l-45 0 0 -120 c0 -113 -1 -120 -20 -120 -18 0
-20 8 -22 118 l-3 117 -42 3 c-29 2 -43 8 -43 18 0 11 21 14 110 14 91 0 110
-3 110 -15z m140 -120 c0 -128 -1 -135 -20 -135 -19 0 -20 7 -20 135 0 128 1
135 20 135 19 0 20 -7 20 -135z m620 40 l75 -95 3 95 c2 87 4 95 22 95 19 0
20 -7 20 -135 0 -170 -6 -171 -110 -37 l-75 97 -3 -98 c-2 -89 -4 -97 -22 -97
-19 0 -20 7 -20 135 0 170 6 172 110 40z m-4680 -249 c35 -13 46 -31 32 -53
-6 -9 -17 -9 -47 2 -90 32 -164 8 -165 -52 0 -34 24 -50 115 -78 96 -29 125
-55 125 -115 0 -45 -30 -87 -76 -106 -61 -26 -168 -13 -215 24 -18 15 -20 22
-11 39 l11 21 47 -24 c89 -45 183 -23 184 42 0 31 -27 50 -109 74 -94 28 -131
61 -131 118 0 46 29 88 74 108 39 17 120 17 166 0z m1495 -5 c58 -26 70 -43
46 -65 -19 -17 -21 -17 -50 5 -60 45 -164 24 -214 -43 -26 -35 -33 -113 -14
-159 8 -20 32 -49 52 -65 50 -38 128 -40 175 -5 30 22 32 22 51 5 24 -22 12
-39 -46 -65 -141 -65 -304 39 -305 194 -1 157 162 263 305 198z m500 0 c129
-58 166 -231 72 -338 -91 -104 -266 -94 -343 20 -26 38 -29 50 -29 122 0 72 3
84 29 122 56 83 179 116 271 74z m-2415 -196 l0 -205 -30 0 -30 0 0 205 0 205
30 0 30 0 0 -205z m1162 5 c48 -107 88 -198 88 -202 0 -5 -13 -8 -29 -8 -25 0
-31 7 -50 50 l-22 50 -108 0 -108 0 -21 -50 c-19 -45 -24 -50 -51 -50 -17 0
-31 2 -31 4 0 2 17 41 38 87 22 46 63 137 92 202 52 116 53 118 84 115 29 -3
33 -10 118 -198z m1682 65 c44 -75 82 -138 86 -140 4 -3 43 57 86 133 69 118
83 137 107 140 l27 3 0 -205 0 -206 -30 0 -30 0 0 148 0 147 -71 -122 c-45
-77 -78 -123 -88 -123 -10 0 -43 46 -86 120 l-70 120 -3 -145 -3 -145 -29 0
-30 0 0 205 0 205 28 0 c25 0 35 -13 106 -135z m763 116 c50 -23 73 -62 73
-126 0 -101 -58 -144 -192 -145 l-78 0 0 -60 0 -60 -30 0 -30 0 0 205 0 205
108 0 c83 0 116 -5 149 -19z m498 -178 c49 -109 90 -201 92 -205 2 -5 -10 -8
-27 -8 -29 0 -34 5 -53 50 l-21 50 -109 0 -109 0 -21 -50 c-18 -43 -25 -50
-49 -50 -15 0 -28 3 -28 8 0 4 39 96 87 204 87 195 88 197 119 198 31 0 32 -2
119 -197z m410 46 l120 -151 3 151 3 151 29 0 30 0 0 -205 0 -205 -27 0 c-24
0 -45 22 -143 145 -63 80 -118 145 -122 145 -5 0 -8 -65 -8 -145 l0 -145 -30
0 -30 0 0 205 0 205 28 0 c23 0 45 -22 147 -151z m453 46 c35 -58 65 -105 66
-105 2 0 32 47 66 105 56 95 65 105 91 105 35 0 40 11 -62 -157 -68 -112 -69
-115 -69 -183 l0 -70 -30 0 -30 0 0 74 0 75 -80 130 -80 131 33 0 c30 0 36 -6
95 -105z m-4983 -425 c10 -33 21 -60 25 -60 4 0 15 27 25 60 24 78 41 76 70
-10 l22 -65 22 68 c13 37 27 67 32 67 13 0 12 -6 -15 -90 -30 -94 -48 -101
-71 -28 -25 77 -26 77 -50 12 -31 -82 -46 -80 -74 8 -13 40 -26 79 -28 86 -3
6 1 12 9 12 9 0 22 -23 33 -60z m305 -25 c0 -69 -3 -85 -15 -85 -12 0 -15 16
-15 85 0 69 3 85 15 85 12 0 15 -16 15 -85z m190 75 c0 -5 -11 -10 -25 -10
-24 0 -25 -2 -25 -75 0 -60 -3 -75 -15 -75 -12 0 -15 15 -15 75 l0 75 -30 0
c-16 0 -30 5 -30 10 0 6 30 10 70 10 40 0 70 -4 70 -10z m90 -25 c0 -35 0 -35
45 -35 45 0 45 0 45 35 0 24 5 35 15 35 12 0 15 -16 15 -85 0 -69 -3 -85 -15
-85 -11 0 -15 11 -15 40 l0 40 -45 0 -45 0 0 -40 c0 -29 -4 -40 -15 -40 -12 0
-15 16 -15 85 0 69 3 85 15 85 10 0 15 -11 15 -35z m420 25 c0 -5 -13 -10 -30
-10 l-30 0 0 -75 c0 -60 -3 -75 -15 -75 -12 0 -15 15 -15 75 0 73 -1 75 -25
75 -14 0 -25 5 -25 10 0 6 30 10 70 10 40 0 70 -4 70 -10z m80 -25 l0 -35 50
0 50 0 0 35 c0 19 5 35 10 35 6 0 10 -35 10 -85 0 -50 -4 -85 -10 -85 -5 0
-10 18 -10 40 l0 40 -50 0 -50 0 0 -40 c0 -22 -4 -40 -10 -40 -6 0 -10 35 -10
85 0 50 4 85 10 85 6 0 10 -16 10 -35z m330 25 c0 -5 -22 -10 -50 -10 -47 0
-50 -2 -50 -25 0 -23 4 -25 45 -25 25 0 45 -4 45 -10 0 -5 -20 -10 -45 -10
-43 0 -45 -1 -45 -30 0 -29 1 -30 50 -30 28 0 50 -4 50 -10 0 -6 -27 -10 -60
-10 l-60 0 0 85 0 85 60 0 c33 0 60 -4 60 -10z m202 -57 l30 -68 20 45 c11 25
24 55 29 68 5 12 15 22 23 22 18 0 -53 -169 -72 -170 -12 0 -82 137 -82 161 0
28 25 1 52 -58z m198 -18 c0 -69 -3 -85 -15 -85 -12 0 -15 16 -15 85 0 69 3
85 15 85 12 0 15 -16 15 -85z m174 79 c28 -11 6 -25 -28 -19 -21 4 -36 2 -44
-7 -15 -19 -4 -31 43 -49 67 -25 56 -89 -16 -89 -37 0 -59 9 -59 26 0 11 5 11
24 3 14 -7 36 -9 51 -5 27 7 30 25 4 36 -60 28 -74 38 -77 57 -6 40 51 67 102
47z m116 -79 c0 -69 -3 -85 -15 -85 -12 0 -15 16 -15 85 0 69 3 85 15 85 12 0
15 -16 15 -85z m221 56 c17 -18 29 -40 29 -56 0 -16 -12 -38 -29 -56 -59 -58
-151 -24 -151 56 0 80 92 114 151 56z m169 -32 l45 -61 3 61 c2 45 7 61 17 61
12 0 15 -17 15 -85 0 -104 -10 -108 -71 -28 l-44 57 -3 -57 c-2 -42 -7 -57
-17 -57 -12 0 -15 17 -15 85 0 62 3 85 13 85 6 -1 32 -28 57 -61z m395 36 c54
-53 16 -145 -59 -145 -51 0 -90 37 -90 85 0 75 96 114 149 60z m215 15 c0 -5
-20 -10 -45 -10 -43 0 -45 -1 -45 -30 0 -28 2 -30 40 -30 22 0 40 -4 40 -10 0
-5 -18 -10 -40 -10 -39 0 -40 -1 -40 -35 0 -24 -5 -35 -15 -35 -12 0 -15 16
-15 85 l0 85 60 0 c33 0 60 -4 60 -10z m200 -25 c0 -35 0 -35 45 -35 45 0 45
0 45 35 0 24 5 35 15 35 12 0 15 -16 15 -85 0 -69 -3 -85 -15 -85 -11 0 -15
11 -15 40 l0 40 -45 0 -45 0 0 -40 c0 -29 -4 -40 -15 -40 -12 0 -15 16 -15 85
0 69 3 85 15 85 10 0 15 -11 15 -35z m320 25 c0 -5 -20 -10 -45 -10 -41 0 -45
-2 -45 -25 0 -22 4 -25 40 -25 22 0 40 -4 40 -10 0 -5 -18 -10 -40 -10 -38 0
-40 -2 -40 -30 0 -29 2 -30 45 -30 25 0 45 -4 45 -10 0 -6 -27 -10 -60 -10
l-60 0 0 85 0 85 60 0 c33 0 60 -4 60 -10z m100 -65 l0 -75 45 0 c25 0 45 -4
45 -10 0 -6 -27 -10 -60 -10 l-60 0 0 85 c0 69 3 85 15 85 12 0 15 -15 15 -75z
m265 61 c11 -8 18 -26 18 -46 0 -40 -24 -60 -70 -60 -29 0 -33 -3 -33 -25 0
-16 -6 -25 -15 -25 -12 0 -15 16 -15 85 l0 85 48 0 c27 0 57 -6 67 -14z m115
-71 c0 -50 -4 -85 -10 -85 -6 0 -10 35 -10 85 0 50 4 85 10 85 6 0 10 -35 10
-85z m151 28 l44 -57 3 57 c2 42 7 57 17 57 12 0 15 -17 15 -85 0 -61 -3 -85
-12 -85 -7 0 -33 28 -58 61 l-45 60 -3 -61 c-2 -44 -7 -60 -17 -60 -12 0 -15
17 -15 85 0 104 10 108 71 28z m283 51 c9 -3 16 -13 16 -21 0 -11 -5 -13 -17
-7 -27 12 -70 9 -88 -6 -11 -9 -15 -26 -13 -49 2 -28 9 -39 31 -49 40 -19 67
-7 67 30 0 38 24 33 28 -7 5 -36 -19 -55 -66 -55 -42 0 -92 46 -92 85 0 56 77
101 134 79z m310 -74 c41 -90 41 -90 22 -90 -7 0 -16 9 -19 20 -4 16 -14 20
-52 20 -38 0 -48 -4 -52 -20 -3 -11 -12 -20 -20 -20 -17 0 -18 -2 27 98 18 39
38 72 45 72 7 0 29 -36 49 -80z m126 5 l0 -75 45 0 c25 0 45 -4 45 -10 0 -6
-27 -10 -60 -10 l-60 0 0 85 c0 69 3 85 15 85 12 0 15 -15 15 -75z m180 0 l0
-75 45 0 c25 0 45 -4 45 -10 0 -6 -27 -10 -60 -10 l-60 0 0 85 c0 69 3 85 15
85 12 0 15 -15 15 -75z m-5070 -185 c0 -5 -22 -10 -50 -10 l-50 0 0 -35 c0
-35 0 -35 45 -35 25 0 45 -4 45 -10 0 -5 -20 -10 -45 -10 -45 0 -45 0 -45 -35
0 -24 -5 -35 -15 -35 -12 0 -15 17 -15 90 l0 90 65 0 c37 0 65 -4 65 -10z
m191 -75 c45 -97 44 -95 24 -95 -8 0 -17 11 -21 25 -6 22 -11 25 -55 25 -44 0
-51 -3 -59 -25 -5 -14 -16 -25 -24 -25 -11 0 -4 23 26 90 24 51 47 90 55 90 8
0 32 -37 54 -85z m169 30 c17 -30 35 -57 39 -59 4 -3 23 22 41 54 48 86 60 80
60 -30 0 -73 -3 -90 -15 -90 -12 0 -15 14 -15 63 l0 62 -31 -52 c-17 -29 -34
-53 -37 -53 -4 0 -22 24 -39 53 l-32 52 -1 -62 c0 -49 -3 -63 -15 -63 -12 0
-15 17 -15 90 0 109 13 117 60 35z m270 -35 c0 -73 -3 -90 -15 -90 -12 0 -15
17 -15 90 0 73 3 90 15 90 12 0 15 -17 15 -90z m120 10 l0 -80 50 0 c28 0 50
-4 50 -10 0 -6 -28 -10 -65 -10 l-65 0 0 90 c0 73 3 90 15 90 12 0 15 -16 15
-80z m200 -10 c0 -73 -3 -90 -15 -90 -12 0 -15 17 -15 90 0 73 3 90 15 90 12
0 15 -17 15 -90z m220 80 c0 -5 -22 -10 -50 -10 -49 0 -50 -1 -50 -30 0 -29 2
-30 45 -30 25 0 45 -4 45 -10 0 -5 -20 -10 -45 -10 -43 0 -45 -1 -45 -30 0
-30 1 -30 55 -30 30 0 55 -4 55 -10 0 -6 -30 -10 -70 -10 l-70 0 0 90 0 90 65
0 c37 0 65 -4 65 -10z m184 4 c9 -3 16 -12 16 -20 0 -10 -6 -11 -26 -3 -34 12
-64 3 -64 -21 0 -13 9 -22 28 -26 67 -16 97 -70 53 -94 -25 -13 -77 -13 -102
1 -30 16 -13 29 22 17 41 -14 90 5 68 27 -8 8 -32 20 -54 27 -32 10 -41 19
-43 39 -5 46 48 74 102 53z m246 -84 c0 -53 -4 -90 -10 -90 -6 0 -10 37 -10
90 0 53 4 90 10 90 6 0 10 -37 10 -90z m172 25 l53 -64 3 64 c4 98 22 78 22
-25 0 -50 -4 -90 -9 -90 -6 0 -31 26 -57 58 -25 31 -50 59 -55 60 -5 2 -9 -24
-9 -57 0 -34 -4 -61 -10 -61 -6 0 -10 37 -10 90 0 50 4 90 9 90 6 0 34 -29 63
-65z m418 55 c0 -5 -13 -10 -30 -10 l-30 0 0 -80 c0 -64 -3 -80 -15 -80 -12 0
-15 16 -15 80 l0 80 -30 0 c-16 0 -30 5 -30 10 0 6 32 10 75 10 43 0 75 -4 75
-10z m100 -30 l0 -40 50 0 50 0 0 40 c0 29 4 40 15 40 12 0 15 -17 15 -90 0
-73 -3 -90 -15 -90 -11 0 -15 11 -15 40 l0 40 -50 0 -50 0 0 -40 c0 -29 -4
-40 -15 -40 -12 0 -15 17 -15 90 0 73 3 90 15 90 11 0 15 -11 15 -40z m360 31
c0 -6 -24 -11 -52 -13 -49 -3 -53 -5 -53 -28 0 -23 4 -25 48 -28 63 -4 60 -22
-4 -22 -49 0 -50 -1 -47 -27 3 -26 7 -28 56 -31 75 -4 65 -22 -13 -22 l-65 0
0 90 0 90 65 0 c36 0 65 -4 65 -9z m110 -81 c0 -53 -4 -90 -10 -90 -6 0 -10
37 -10 90 0 53 4 90 10 90 6 0 10 -37 10 -90z m218 74 c26 -18 30 -65 6 -89
-15 -14 -15 -18 0 -40 19 -29 20 -35 3 -35 -7 0 -21 14 -31 31 -14 23 -24 29
-44 27 -21 -2 -28 -9 -30 -30 -2 -16 -8 -28 -13 -28 -5 0 -9 41 -9 90 l0 90
48 0 c27 0 57 -7 70 -16z m252 -74 c0 -73 -3 -90 -15 -90 -12 0 -15 17 -15 90
0 73 3 90 15 90 12 0 15 -17 15 -90z m150 35 c17 -30 35 -57 39 -59 4 -3 23
22 41 54 48 86 60 80 60 -30 0 -73 -3 -90 -15 -90 -12 0 -15 14 -15 63 l0 62
-31 -52 c-17 -29 -34 -53 -37 -53 -4 0 -22 24 -39 53 l-32 52 -1 -62 c0 -49
-3 -63 -15 -63 -12 0 -15 17 -15 90 0 109 13 117 60 35z m367 33 c46 -43 14
-98 -57 -98 -38 0 -40 -2 -40 -30 0 -20 -5 -30 -15 -30 -12 0 -15 17 -15 90
l0 90 52 0 c39 0 57 -5 75 -22z m254 -7 c20 -20 29 -39 29 -61 0 -43 -47 -90
-90 -90 -61 0 -99 35 -99 90 0 84 99 122 160 61z m237 13 c26 -18 30 -65 6
-89 -15 -14 -15 -18 0 -40 19 -29 20 -35 3 -35 -7 0 -21 14 -31 31 -14 23 -24
29 -44 27 -21 -2 -28 -9 -30 -30 -2 -16 -8 -28 -13 -28 -5 0 -9 41 -9 90 l0
90 48 0 c27 0 57 -7 70 -16z m232 6 c0 -5 -13 -10 -30 -10 l-30 0 0 -80 c0
-64 -3 -80 -15 -80 -12 0 -15 16 -15 80 l0 80 -30 0 c-16 0 -30 5 -30 10 0 6
32 10 75 10 43 0 75 -4 75 -10z m188 -80 c30 -67 37 -90 26 -90 -8 0 -19 11
-24 25 -8 22 -15 25 -59 25 -44 0 -49 -3 -55 -25 -4 -14 -13 -25 -21 -25 -20
0 -21 -2 24 95 22 48 46 85 54 85 8 0 31 -39 55 -90z m190 24 l52 -66 0 66 c0
52 3 66 15 66 12 0 15 -17 15 -90 0 -110 -8 -113 -76 -29 l-49 62 -3 -62 c-2
-45 -7 -61 -17 -61 -12 0 -15 18 -15 90 0 66 3 90 13 90 6 -1 36 -30 65 -66z
m302 56 c0 -5 -13 -10 -30 -10 l-30 0 0 -80 c0 -64 -3 -80 -15 -80 -12 0 -15
16 -15 80 l0 80 -30 0 c-16 0 -30 5 -30 10 0 6 32 10 75 10 43 0 75 -4 75 -10z
m-4399 -263 c39 -26 69 -79 69 -122 0 -74 -70 -145 -142 -145 -46 0 -83 17
-118 55 -21 23 -25 36 -25 90 0 49 4 68 20 85 55 63 135 78 196 37z m374 9
c37 -16 43 -27 22 -44 -8 -7 -18 -6 -31 4 -35 25 -94 18 -127 -15 -24 -24 -29
-38 -29 -76 0 -38 5 -52 29 -76 33 -33 92 -40 127 -15 13 10 23 11 31 4 21
-17 15 -28 -22 -44 -106 -44 -205 19 -205 131 0 112 99 175 205 131z m619 4
c14 -5 26 -17 26 -25 0 -13 -7 -15 -37 -9 -42 7 -39 7 -70 5 -25 -1 -46 -32
-37 -55 3 -8 35 -25 70 -36 96 -32 118 -77 65 -131 -24 -24 -38 -29 -76 -29
-52 0 -105 23 -105 45 0 18 5 18 55 1 48 -17 92 -10 106 16 15 28 -3 44 -67
63 -94 27 -119 81 -65 136 32 31 84 39 135 19z m313 -3 c35 -19 14 -41 -28
-30 -50 14 -99 -1 -99 -31 0 -29 14 -41 66 -55 102 -27 127 -107 47 -149 -45
-25 -171 0 -160 30 4 14 13 14 67 0 42 -10 79 -2 93 20 16 24 -7 46 -68 63
-62 19 -88 44 -88 87 0 46 41 78 101 78 26 -1 57 -6 69 -13z m500 -4 c48 -22
73 -66 73 -128 0 -62 -25 -106 -73 -128 -45 -22 -93 -21 -136 1 -54 27 -75 64
-75 127 0 63 21 100 75 127 43 22 91 23 136 1z m1290 0 c48 -22 73 -66 73
-128 0 -62 -25 -106 -73 -128 -45 -22 -93 -21 -136 1 -54 27 -75 64 -75 127 0
63 21 100 75 127 43 22 91 23 136 1z m1271 -3 c17 -11 32 -24 32 -29 0 -16
-25 -19 -45 -5 -25 19 -90 18 -120 -2 -34 -23 -51 -81 -36 -127 14 -43 48 -67
95 -67 58 0 66 7 66 61 0 42 3 49 20 49 18 0 20 -7 20 -61 0 -59 -1 -60 -35
-75 -79 -33 -162 -5 -197 66 -64 127 79 263 200 190z m-5052 -23 c32 -37 32
-87 0 -123 -20 -24 -32 -28 -90 -32 l-66 -4 0 -39 c0 -32 -3 -39 -20 -39 -19
0 -20 7 -20 136 l0 136 86 -3 c79 -4 87 -6 110 -32z m314 18 c58 -30 68 -100
21 -144 l-29 -27 30 -39 c26 -35 27 -40 12 -44 -11 -2 -31 12 -53 38 -30 35
-42 41 -73 41 -38 0 -38 0 -38 -40 0 -33 -3 -40 -20 -40 -19 0 -20 7 -20 135
l0 135 70 0 c44 0 82 -6 100 -15z m1090 -5 c0 -18 -7 -20 -75 -20 l-75 0 0
-40 0 -40 70 0 c56 0 70 -3 70 -15 0 -12 -14 -15 -70 -15 l-70 0 0 -40 0 -39
77 -3 c65 -3 78 -6 81 -20 3 -16 -7 -18 -97 -18 l-101 0 0 135 0 135 95 0 c88
0 95 -1 95 -20z m1478 3 c-3 -15 -16 -18 -81 -21 l-78 -3 3 -42 3 -42 68 -3
c51 -2 67 -6 67 -17 0 -12 -15 -15 -70 -15 l-70 0 0 -55 c0 -48 -2 -55 -20
-55 -19 0 -20 7 -20 135 l0 135 101 0 c90 0 100 -2 97 -17z m363 -73 c29 -49
56 -90 59 -90 3 0 29 41 58 90 68 116 82 117 82 8 0 -46 3 -107 6 -135 6 -49
5 -53 -15 -53 -19 0 -21 5 -21 59 0 32 -3 73 -6 90 l-7 32 -43 -73 c-24 -40
-49 -73 -56 -73 -6 0 -33 36 -60 80 l-48 80 0 -97 c0 -91 -1 -98 -20 -98 -19
0 -20 7 -20 135 0 126 1 135 19 135 13 0 35 -27 72 -90z m770 -8 c24 -54 48
-99 53 -101 5 -1 29 43 54 98 35 79 49 101 64 101 23 0 27 11 -44 -150 -71
-162 -76 -162 -151 8 -32 70 -57 130 -57 135 0 4 8 7 19 7 14 0 29 -25 62 -98z
m329 -37 c0 -128 -1 -135 -20 -135 -19 0 -20 7 -20 135 0 128 1 135 20 135 19
0 20 -7 20 -135z m247 39 l78 -96 3 96 c2 88 4 96 22 96 19 0 20 -7 20 -135 0
-169 -6 -171 -110 -40 l-75 94 -3 -94 c-3 -93 -3 -95 -27 -95 l-25 0 0 135 c0
127 1 135 19 135 13 0 48 -34 98 -96z m-4603 -339 c58 -124 62 -135 41 -135
-9 0 -22 13 -28 30 -11 29 -14 30 -73 30 -59 0 -62 -1 -74 -30 -7 -18 -20 -30
-31 -30 -17 0 -15 8 17 78 20 42 43 94 52 115 25 62 46 50 96 -58z m236 13
l65 -83 3 83 c2 64 6 82 17 82 12 0 15 -21 15 -115 0 -90 -3 -115 -14 -115 -7
0 -42 37 -77 81 l-64 82 -3 -82 c-3 -73 -5 -81 -22 -81 -19 0 -20 7 -20 115 0
145 9 148 100 33z m258 19 l35 -58 36 60 c23 40 42 61 54 61 17 0 17 -2 -4
-37 -13 -21 -33 -54 -46 -73 -15 -23 -23 -49 -23 -77 0 -36 -3 -43 -20 -43
-17 0 -20 7 -20 45 0 34 -8 58 -35 100 -48 74 -53 88 -29 83 10 -1 34 -29 52
-61z m258 -29 l31 -93 13 40 c59 180 72 187 116 53 l31 -93 29 89 c25 78 45
109 59 94 3 -2 -12 -55 -33 -116 -46 -142 -60 -145 -103 -28 -16 43 -31 81
-33 83 -2 3 -17 -34 -32 -81 -23 -72 -32 -86 -49 -86 -17 0 -26 16 -54 103
-19 56 -36 108 -38 115 -3 7 3 12 14 12 15 0 25 -19 49 -92z m404 42 l0 -50
65 0 65 0 0 50 c0 43 3 50 20 50 19 0 20 -7 20 -115 0 -108 -1 -115 -20 -115
-17 0 -20 7 -20 50 l0 50 -65 0 -65 0 0 -50 c0 -38 -4 -50 -15 -50 -12 0 -15
19 -15 115 0 96 3 115 15 115 11 0 15 -12 15 -50z m450 35 c0 -12 -14 -15 -65
-15 l-65 0 0 -35 0 -35 55 0 c42 0 55 -3 55 -15 0 -12 -13 -15 -55 -15 l-55 0
0 -35 0 -35 65 0 c51 0 65 -3 65 -15 0 -12 -16 -15 -85 -15 l-85 0 0 115 0
115 85 0 c69 0 85 -3 85 -15z m249 0 c48 -24 56 -81 17 -120 l-24 -24 24 -32
c29 -40 29 -39 5 -39 -11 0 -28 15 -41 35 -18 29 -28 35 -56 35 -32 0 -34 -2
-34 -35 0 -28 -4 -35 -20 -35 -19 0 -20 7 -20 115 l0 115 60 0 c34 0 74 -7 89
-15z m301 0 c0 -12 -14 -15 -65 -15 l-65 0 0 -35 0 -35 60 0 c47 0 60 -3 60
-15 0 -12 -13 -15 -60 -15 l-60 0 0 -35 0 -35 70 0 c56 0 70 -3 70 -15 0 -12
-16 -15 -85 -15 l-85 0 0 115 0 115 80 0 c64 0 80 -3 80 -15z m373 -42 c14
-32 37 -84 51 -115 24 -54 24 -58 7 -58 -11 0 -23 12 -31 30 -12 29 -15 30
-71 30 -55 0 -59 -2 -74 -30 -9 -16 -22 -30 -30 -30 -19 0 -20 -3 16 77 17 37
39 87 50 111 27 61 50 57 82 -15z m307 42 c0 -11 -11 -15 -40 -15 l-40 0 0
-100 c0 -93 -1 -100 -20 -100 -19 0 -20 7 -20 100 l0 100 -35 0 c-24 0 -35 5
-35 15 0 12 17 15 95 15 78 0 95 -3 95 -15z m364 -80 c58 -124 62 -135 41
-135 -9 0 -22 13 -28 30 -11 29 -14 30 -73 30 -59 0 -62 -1 -74 -30 -7 -18
-20 -30 -31 -30 -17 0 -15 8 17 78 20 42 43 94 52 115 25 62 46 50 96 -58z
m236 13 l65 -83 3 83 c2 64 6 82 17 82 12 0 15 -21 15 -115 0 -90 -3 -115 -14
-115 -7 0 -42 37 -77 81 l-64 82 -3 -82 c-3 -73 -5 -81 -22 -81 -19 0 -20 7
-20 115 0 145 9 148 100 33z m258 19 l35 -58 36 60 c23 40 42 61 54 61 17 0
17 -2 -4 -37 -13 -21 -33 -54 -46 -73 -15 -23 -23 -49 -23 -77 0 -36 -3 -43
-20 -43 -17 0 -20 7 -20 45 0 34 -8 58 -35 100 -48 74 -53 88 -29 83 10 -1 34
-29 52 -61z m522 48 c0 -11 -11 -15 -40 -15 l-40 0 0 -100 c0 -93 -1 -100 -20
-100 -19 0 -20 7 -20 100 l0 100 -40 0 c-29 0 -40 4 -40 15 0 12 18 15 100 15
82 0 100 -3 100 -15z m110 -100 c0 -96 -3 -115 -15 -115 -12 0 -15 19 -15 115
0 96 3 115 15 115 12 0 15 -19 15 -115z m190 40 c24 -41 47 -75 50 -75 3 0 26
34 50 75 24 41 50 75 57 75 10 0 13 -28 13 -115 0 -96 -3 -115 -15 -115 -12 0
-15 16 -15 83 l0 82 -41 -68 c-22 -37 -46 -66 -52 -64 -7 2 -28 30 -47 63
l-35 59 -3 -78 c-2 -59 -6 -77 -17 -77 -12 0 -15 21 -15 115 0 87 3 115 13
115 7 0 33 -34 57 -75z m450 60 c0 -12 -14 -15 -65 -15 l-65 0 0 -35 0 -35 60
0 c47 0 60 -3 60 -15 0 -12 -13 -15 -60 -15 l-60 0 0 -35 0 -35 70 0 c56 0 70
-3 70 -15 0 -12 -16 -15 -85 -15 l-85 0 0 115 0 115 80 0 c64 0 80 -3 80 -15z
m130 -196 c0 -23 -28 -26 -37 -3 -6 16 15 37 29 28 4 -3 8 -14 8 -25z"/>
<path d="M5272 10081 c-10 -6 -11 -22 -6 -61 l7 -52 45 5 c24 3 48 11 53 18 8
13 3 73 -8 92 -6 10 -75 9 -91 -2z"/>
<path d="M7576 9811 c-24 -38 -106 -249 -104 -265 4 -26 88 -70 116 -62 22 7
133 261 125 284 -13 32 -123 67 -137 43z"/>
<path d="M8877 8891 l-68 -38 50 -46 c28 -26 53 -47 55 -47 3 0 21 31 40 68
25 50 32 72 25 85 -14 24 -25 22 -102 -22z"/>
<path d="M4384 7476 c-63 -28 -64 -33 -64 -327 l0 -266 -114 -98 c-63 -54
-118 -105 -122 -114 -29 -71 -19 -133 28 -178 26 -25 38 -28 116 -33 l87 -5 5
-500 c6 -556 3 -535 73 -569 31 -14 102 -16 689 -16 637 0 654 1 686 20 19 12
41 38 52 63 18 40 20 70 20 523 l0 482 84 3 c78 4 87 6 116 34 41 39 57 93 42
143 -13 42 19 13 -537 492 -419 361 -390 338 -433 350 -63 16 -100 -2 -234
-115 l-123 -105 -6 73 c-12 136 -40 157 -214 157 -78 -1 -131 -5 -151 -14z
m246 -215 l0 -108 -72 -63 c-40 -35 -85 -75 -100 -89 l-28 -25 0 197 0 197
100 0 100 0 0 -109z m571 16 c59 -51 200 -173 315 -272 340 -293 449 -388 456
-401 21 -33 -11 -34 -903 -32 l-884 3 0 22 c0 15 96 104 370 339 204 175 399
344 435 376 36 31 74 58 85 57 11 0 68 -41 126 -92z m517 -1304 l-3 -488 -177
-3 -178 -2 0 302 c0 190 -4 318 -11 343 -6 22 -28 56 -48 76 -45 45 -93 53
-275 47 -116 -4 -126 -5 -160 -31 -66 -51 -66 -50 -66 -412 l0 -325 -182 2
-183 3 -3 488 -2 487 645 0 645 0 -2 -487z m-490 145 c9 -9 12 -95 12 -325 l0
-313 -165 0 -165 0 0 313 c0 230 3 316 12 325 8 8 57 12 153 12 96 0 145 -4
153 -12z"/>
<path d="M1944 7205 c-10 -16 -18 -47 -18 -74 l-1 -46 125 -42 c160 -54 170
-54 193 15 11 36 14 59 8 70 -8 15 -134 60 -273 99 -10 3 -23 -5 -34 -22z"/>
<path d="M9905 7103 c-66 -19 -126 -42 -133 -51 -25 -33 13 -132 51 -131 12 0
78 17 147 37 l125 38 3 36 c2 20 -4 52 -12 72 -19 45 -26 45 -181 -1z"/>
<path d="M6847 5532 c-22 -24 -21 -55 1 -75 15 -14 41 -17 145 -17 136 0 157
7 157 55 0 48 -21 55 -159 55 -111 0 -130 -2 -144 -18z"/>
<path d="M4469 4903 c-168 -86 -166 -330 5 -409 71 -33 138 -32 207 4 162 84
159 325 -4 407 -70 34 -136 34 -208 -2z m145 -97 c79 -33 100 -118 45 -180
-74 -85 -199 -36 -199 77 0 41 31 84 74 103 39 17 40 17 80 0z"/>
<path d="M7485 4919 c-45 -12 -115 -77 -136 -123 -11 -24 -19 -64 -19 -96 0
-196 229 -302 377 -175 163 139 62 409 -152 404 -22 0 -54 -5 -70 -10z m143
-126 c13 -8 31 -31 39 -51 13 -32 14 -42 2 -77 -16 -45 -67 -85 -108 -85 -57
0 -121 65 -121 123 0 37 41 91 80 104 39 13 73 8 108 -14z"/>
<path d="M3953 3955 c-33 -23 -48 -79 -34 -126 15 -49 44 -69 99 -69 33 0 48
6 66 25 66 71 24 185 -68 185 -23 0 -51 -7 -63 -15z"/>
<path d="M6719 3941 c-24 -24 -29 -38 -29 -76 0 -38 5 -52 29 -76 39 -38 97
-40 138 -5 25 21 28 31 28 81 0 50 -3 60 -28 81 -41 35 -99 33 -138 -5z"/>
<path d="M8189 3941 c-24 -24 -29 -38 -29 -76 0 -38 5 -52 29 -76 39 -38 97
-40 138 -5 25 21 28 31 28 81 0 50 -3 60 -28 81 -41 35 -99 33 -138 -5z"/>
<path d="M5690 3905 l0 -68 51 6 c63 8 79 20 79 62 0 42 -16 54 -79 62 l-51 6
0 -68z"/>
<path d="M7428 3890 l-26 -60 55 0 c52 0 54 1 47 23 -7 23 -43 97 -47 97 -1 0
-14 -27 -29 -60z"/>
<path d="M5806 3610 c-64 -20 -106 -83 -106 -158 0 -90 65 -156 154 -156 193
0 212 294 21 318 -22 3 -53 1 -69 -4z"/>
<path d="M4536 3517 c-58 -127 -61 -117 38 -117 l85 0 -41 93 c-22 50 -42 94
-44 96 -2 2 -19 -30 -38 -72z"/>
<path d="M6945 3598 c-3 -8 -5 -50 -3 -94 l3 -79 77 0 c67 0 80 3 102 24 36
34 36 98 0 132 -21 20 -38 24 -100 27 -58 3 -75 1 -79 -10z"/>
<path d="M7473 3498 l-40 -93 80 -3 c44 -2 81 -1 83 1 4 4 -64 168 -76 180 -4
4 -25 -34 -47 -85z"/>
<path d="M5752 3160 c-25 -11 -41 -45 -34 -73 12 -46 90 -58 112 -17 30 57
-19 113 -78 90z"/>
<path d="M6312 3158 c-45 -22 -41 -88 7 -108 33 -13 64 -2 81 30 15 28 13 38
-15 65 -26 27 -38 29 -73 13z"/>
<path d="M7420 3130 c0 -37 2 -40 28 -40 32 0 52 16 52 42 0 20 -28 38 -59 38
-18 0 -21 -6 -21 -40z"/>
<path d="M8298 3125 c-17 -43 -12 -50 31 -43 20 3 20 4 2 43 l-17 39 -16 -39z"/>
<path d="M3718 2869 l-17 -39 35 0 c39 0 40 3 16 47 l-17 32 -17 -40z"/>
<path d="M6488 2914 c-5 -4 -8 -22 -8 -41 0 -31 2 -33 34 -33 31 0 66 20 66
38 -1 27 -73 55 -92 36z"/>
<path d="M7250 2880 c0 -36 2 -40 26 -40 61 0 89 51 38 70 -51 20 -64 14 -64
-30z"/>
<path d="M7507 2908 c-30 -11 -43 -43 -33 -82 12 -50 109 -50 122 0 15 61 -29
102 -89 82z"/>
<path d="M7748 2914 c-5 -4 -8 -22 -8 -41 0 -31 2 -33 34 -33 31 0 66 20 66
38 -1 27 -73 55 -92 36z"/>
<path d="M8186 2875 c-9 -21 -14 -40 -12 -42 2 -3 17 -3 33 -1 l30 3 -18 39
-17 40 -16 -39z"/>
<path d="M4205 2626 c-46 -46 -45 -129 2 -166 31 -24 94 -27 128 -4 54 35 54
142 0 178 -38 25 -101 21 -130 -8z"/>
<path d="M6018 2622 c-27 -25 -31 -36 -31 -77 0 -41 4 -52 31 -77 72 -63 172
-19 172 77 0 96 -100 140 -172 77z"/>
<path d="M7308 2622 c-27 -25 -31 -36 -31 -77 0 -41 4 -52 31 -77 72 -63 172
-19 172 77 0 96 -100 140 -172 77z"/>
<path d="M3510 2585 l0 -55 54 0 c61 0 86 16 86 55 0 39 -25 55 -86 55 l-54 0
0 -55z"/>
<path d="M3850 2579 l0 -62 53 6 c36 5 57 13 70 28 21 26 21 38 1 67 -12 18
-25 22 -70 22 l-54 0 0 -61z"/>
<path d="M3571 2256 c-12 -27 -19 -51 -17 -53 2 -2 22 -3 43 -1 l39 3 -21 50
-22 49 -22 -48z"/>
<path d="M5400 2260 l0 -50 36 0 c51 0 74 15 74 50 0 35 -23 50 -74 50 l-36 0
0 -50z"/>
<path d="M6113 2250 l-21 -50 44 0 c24 0 44 2 44 4 0 8 -39 96 -43 96 -2 0
-13 -22 -24 -50z"/>
<path d="M6771 2256 c-12 -27 -19 -51 -17 -53 2 -2 22 -3 43 -1 l39 3 -21 50
-22 49 -22 -48z"/>
</g>
</svg>
